<svg xmlns="http://www.w3.org/2000/svg" viewBox="0 0 512 512" width="512" height="512">
  <defs>
    <radialGradient id="bg-li" cx="47%" cy="29%" r="82%">
      <stop offset="0%" stop-color="#0e2230"/>
      <stop offset="55%" stop-color="#081820"/>
      <stop offset="100%" stop-color="#040e14"/>
    </radialGradient>
    <radialGradient id="skin-li" cx="50%" cy="43%" r="54%">
      <stop offset="0%" stop-color="#d8a87a"/>
      <stop offset="100%" stop-color="#ae7848"/>
    </radialGradient>
    <linearGradient id="body-li" x1="0%" y1="0%" x2="0%" y2="100%">
      <stop offset="0%" stop-color="#101e28"/>
      <stop offset="100%" stop-color="#080e14"/>
    </linearGradient>
    <linearGradient id="hijab-li" x1="0%" y1="0%" x2="100%" y2="100%">
      <stop offset="0%" stop-color="#0c1820"/>
      <stop offset="100%" stop-color="#060e16"/>
    </linearGradient>
  </defs>
  <rect width="512" height="512" fill="url(#bg-li)"/>
  <ellipse cx="198" cy="115" rx="295" ry="205" fill="rgba(6,182,212,0.07)"/>
  <path d="M 0 512 C 30 403 112 361 178 351 Q 217 345 256 345 Q 295 345 334 351 C 400 361 482 403 512 512 Z" fill="url(#body-li)"/>
  <path d="M 139 241 C 113 301 117 385 145 429 Q 193 453 256 455 Q 319 453 367 429 C 395 385 399 301 373 241 C 341 221 301 213 256 213 C 211 213 171 221 139 241 Z" fill="url(#hijab-li)"/>
  <ellipse cx="256" cy="207" rx="119" ry="93" fill="#081014"/>
  <ellipse cx="256" cy="257" rx="77" ry="89" fill="url(#skin-li)"/>
  <path d="M 179 235 C 177 251 180 271 183 283 C 207 221 256 217 305 221 C 308 271 311 251 333 235 C 325 215 293 201 256 200 C 219 201 187 215 179 235 Z" fill="#081014"/>
  <path d="M 210 231 Q 225 223 240 228" stroke="#180e08" stroke-width="4" fill="none" stroke-linecap="round"/>
  <path d="M 272 228 Q 287 223 302 231" stroke="#180e08" stroke-width="4" fill="none" stroke-linecap="round"/>
  <ellipse cx="227" cy="246" rx="16.5" ry="10" fill="#f2eae2"/>
  <ellipse cx="227" cy="246" rx="11.5" ry="9.5" fill="#241408"/>
  <ellipse cx="227" cy="246" rx="7" ry="7" fill="#060408"/>
  <circle cx="231" cy="243" r="2.5" fill="white" opacity="0.8"/>
  <ellipse cx="285" cy="246" rx="16.5" ry="10" fill="#f2eae2"/>
  <ellipse cx="285" cy="246" rx="11.5" ry="9.5" fill="#241408"/>
  <ellipse cx="285" cy="246" rx="7" ry="7" fill="#060408"/>
  <circle cx="289" cy="243" r="2.5" fill="white" opacity="0.8"/>
  <path d="M 211 238 Q 227 231 243 237" stroke="#060408" stroke-width="2.5" fill="none" stroke-linecap="round"/>
  <path d="M 269 237 Q 285 231 301 238" stroke="#060408" stroke-width="2.5" fill="none" stroke-linecap="round"/>
  <ellipse cx="248" cy="284" rx="5" ry="4" fill="rgba(0,0,0,0.12)"/>
  <ellipse cx="264" cy="284" rx="5" ry="4" fill="rgba(0,0,0,0.12)"/>
  <path d="M 238 308 Q 248 301 256 303 Q 264 301 274 308 Q 264 318 256 319 Q 248 318 238 308 Z" fill="#c06040"/>
  <path d="M 238 308 Q 256 322 274 308 Q 264 318 256 319 Q 248 318 238 308 Z" fill="#d07858" opacity="0.8"/>
  <ellipse cx="204" cy="269" rx="26" ry="16" fill="rgba(6,182,212,0.09)"/>
  <ellipse cx="308" cy="269" rx="26" ry="16" fill="rgba(6,182,212,0.09)"/>
</svg>
