<svg xmlns="http://www.w3.org/2000/svg" viewBox="0 0 512 512" width="512" height="512">
  <defs>
    <radialGradient id="bg-m" cx="46%" cy="30%" r="80%">
      <stop offset="0%" stop-color="#281822"/>
      <stop offset="55%" stop-color="#180e1c"/>
      <stop offset="100%" stop-color="#080610"/>
    </radialGradient>
    <radialGradient id="skin-m" cx="50%" cy="44%" r="54%">
      <stop offset="0%" stop-color="#daa878"/>
      <stop offset="100%" stop-color="#b07848"/>
    </radialGradient>
    <linearGradient id="body-m" x1="0%" y1="0%" x2="0%" y2="100%">
      <stop offset="0%" stop-color="#1c1020"/>
      <stop offset="100%" stop-color="#0a0812"/>
    </linearGradient>
    <linearGradient id="hijab-m" x1="0%" y1="0%" x2="100%" y2="100%">
      <stop offset="0%" stop-color="#1a0e18"/>
      <stop offset="100%" stop-color="#0c0a14"/>
    </linearGradient>
  </defs>
  <rect width="512" height="512" fill="url(#bg-m)"/>
  <ellipse cx="195" cy="115" rx="290" ry="205" fill="rgba(236,72,153,0.07)"/>
  <path d="M 0 512 C 32 404 114 362 180 352 Q 218 346 256 346 Q 294 346 332 352 C 398 362 480 404 512 512 Z" fill="url(#body-m)"/>
  <path d="M 138 242 C 112 302 116 386 144 430 Q 192 454 256 456 Q 320 454 368 430 C 396 386 400 302 374 242 C 342 222 302 214 256 214 C 210 214 170 222 138 242 Z" fill="url(#hijab-m)"/>
  <ellipse cx="256" cy="208" rx="118" ry="92" fill="#120a10"/>
  <ellipse cx="256" cy="258" rx="77" ry="89" fill="url(#skin-m)"/>
  <path d="M 179 236 C 177 252 180 272 183 284 C 207 222 256 218 305 222 C 308 272 311 252 333 236 C 325 216 293 202 256 201 C 219 202 187 216 179 236 Z" fill="#120a10"/>
  <path d="M 210 232 Q 225 224 240 229" stroke="#1a0e0a" stroke-width="4" fill="none" stroke-linecap="round"/>
  <path d="M 272 229 Q 287 224 302 232" stroke="#1a0e0a" stroke-width="4" fill="none" stroke-linecap="round"/>
  <ellipse cx="227" cy="248" rx="16" ry="10" fill="#f2eae2"/>
  <ellipse cx="227" cy="248" rx="11.5" ry="9.5" fill="#241208"/>
  <ellipse cx="227" cy="248" rx="7" ry="7" fill="#060408"/>
  <circle cx="231" cy="245" r="2.5" fill="white" opacity="0.78"/>
  <ellipse cx="285" cy="248" rx="16" ry="10" fill="#f2eae2"/>
  <ellipse cx="285" cy="248" rx="11.5" ry="9.5" fill="#241208"/>
  <ellipse cx="285" cy="248" rx="7" ry="7" fill="#060408"/>
  <circle cx="289" cy="245" r="2.5" fill="white" opacity="0.78"/>
  <path d="M 211 240 Q 227 233 243 239" stroke="#060408" stroke-width="2.5" fill="none" stroke-linecap="round"/>
  <path d="M 269 239 Q 285 233 301 240" stroke="#060408" stroke-width="2.5" fill="none" stroke-linecap="round"/>
  <ellipse cx="248" cy="285" rx="5" ry="4" fill="rgba(0,0,0,0.12)"/>
  <ellipse cx="264" cy="285" rx="5" ry="4" fill="rgba(0,0,0,0.12)"/>
  <path d="M 238 309 Q 248 302 256 304 Q 264 302 274 309 Q 264 320 256 321 Q 248 320 238 309 Z" fill="#c46068"/>
  <path d="M 238 309 Q 256 324 274 309 Q 264 320 256 321 Q 248 320 238 309 Z" fill="#d47888" opacity="0.8"/>
  <ellipse cx="204" cy="272" rx="26" ry="16" fill="rgba(236,72,153,0.10)"/>
  <ellipse cx="308" cy="272" rx="26" ry="16" fill="rgba(236,72,153,0.10)"/>
</svg>
