<svg xmlns="http://www.w3.org/2000/svg" viewBox="0 0 512 512" width="512" height="512">
  <defs>
    <radialGradient id="bg-rz" cx="48%" cy="28%" r="82%">
      <stop offset="0%" stop-color="#1e1030"/>
      <stop offset="55%" stop-color="#120a22"/>
      <stop offset="100%" stop-color="#080612"/>
    </radialGradient>
    <radialGradient id="skin-rz" cx="50%" cy="42%" r="54%">
      <stop offset="0%" stop-color="#c89262"/>
      <stop offset="100%" stop-color="#9a6232"/>
    </radialGradient>
    <linearGradient id="body-rz" x1="0%" y1="0%" x2="0%" y2="100%">
      <stop offset="0%" stop-color="#160e28"/>
      <stop offset="100%" stop-color="#08061a"/>
    </linearGradient>
    <linearGradient id="hair-rz" x1="0%" y1="0%" x2="0%" y2="100%">
      <stop offset="0%" stop-color="#0e0c0a"/>
      <stop offset="100%" stop-color="#040206"/>
    </linearGradient>
  </defs>
  <rect width="512" height="512" fill="url(#bg-rz)"/>
  <ellipse cx="192" cy="112" rx="298" ry="204" fill="rgba(168,85,247,0.08)"/>
  <!-- body/suit -->
  <path d="M 0 512 C 25 400 102 356 172 344 Q 213 337 256 337 Q 299 337 340 344 C 410 356 487 400 512 512 Z" fill="url(#body-rz)"/>
  <!-- collar -->
  <path d="M 234 344 L 256 372 L 278 344 L 296 350 Q 278 382 256 397 Q 234 382 216 350 Z" fill="#1a1428"/>
  <path d="M 234 344 L 256 372 L 256 397 Q 244 384 234 344 Z" fill="#f0e4cc" opacity="0.85"/>
  <path d="M 278 344 L 256 372 L 256 397 Q 268 384 278 344 Z" fill="#f0e4cc" opacity="0.85"/>
  <!-- neck -->
  <path d="M 234 298 Q 230 322 228 344 Q 242 352 256 353 Q 270 352 284 344 Q 282 322 278 298 Z" fill="url(#skin-rz)"/>
  <!-- face -->
  <ellipse cx="256" cy="250" rx="82" ry="90" fill="url(#skin-rz)"/>
  <!-- hair (short dark) with slight wave at temples -->
  <ellipse cx="256" cy="178" rx="83" ry="52" fill="url(#hair-rz)"/>
  <path d="M 174 226 C 170 192 178 160 202 150 Q 229 140 256 140 Q 283 140 310 150 C 334 160 342 192 338 226 C 318 198 300 188 256 187 C 212 188 194 198 174 226 Z" fill="url(#hair-rz)"/>
  <!-- beard shadow (denser around jaw) -->
  <path d="M 175 248 C 173 272 177 294 186 312 C 191 284 195 262 175 248 Z" fill="rgba(0,0,0,0.18)"/>
  <path d="M 337 248 C 339 272 335 294 326 312 C 321 284 317 262 337 248 Z" fill="rgba(0,0,0,0.18)"/>
  <!-- eyebrows -->
  <path d="M 208 224 Q 225 216 242 222" stroke="#0c0806" stroke-width="5" fill="none" stroke-linecap="round"/>
  <path d="M 270 222 Q 287 216 304 224" stroke="#0c0806" stroke-width="5" fill="none" stroke-linecap="round"/>
  <!-- left eye -->
  <ellipse cx="227" cy="240" rx="17" ry="10.5" fill="#e8e0d8"/>
  <ellipse cx="227" cy="240" rx="12" ry="10" fill="#1e0e08"/>
  <ellipse cx="227" cy="240" rx="7.5" ry="7.5" fill="#060408"/>
  <circle cx="231" cy="237" r="2.5" fill="white" opacity="0.75"/>
  <!-- right eye -->
  <ellipse cx="285" cy="240" rx="17" ry="10.5" fill="#e8e0d8"/>
  <ellipse cx="285" cy="240" rx="12" ry="10" fill="#1e0e08"/>
  <ellipse cx="285" cy="240" rx="7.5" ry="7.5" fill="#060408"/>
  <circle cx="289" cy="237" r="2.5" fill="white" opacity="0.75"/>
  <path d="M 210 232 Q 227 225 244 231" stroke="#060408" stroke-width="2.5" fill="none" stroke-linecap="round"/>
  <path d="M 268 231 Q 285 225 302 232" stroke="#060408" stroke-width="2.5" fill="none" stroke-linecap="round"/>
  <!-- nose -->
  <path d="M 252 258 L 250 284 Q 256 290 262 284 L 260 258 Z" fill="rgba(0,0,0,0.06)"/>
  <ellipse cx="247" cy="284" rx="6" ry="4.5" fill="rgba(0,0,0,0.14)"/>
  <ellipse cx="265" cy="284" rx="6" ry="4.5" fill="rgba(0,0,0,0.14)"/>
  <!-- mouth -->
  <path d="M 236 308 Q 256 318 276 308" stroke="#9a5c38" stroke-width="2.5" fill="none" stroke-linecap="round"/>
  <!-- beard/stubble shadow -->
  <path d="M 178 282 Q 182 320 200 338 Q 228 352 256 353 Q 284 352 312 338 Q 330 320 334 282 Q 310 304 256 306 Q 202 304 178 282 Z" fill="rgba(0,0,0,0.12)"/>
</svg>
